<svg width="288" height="288" viewBox="0 0 288 288" fill="none" xmlns="http://www.w3.org/2000/svg">
<g filter="url(#filter0_d_2127_192)">
<path d="M121.99 124.645L95.72 148.593L80.81 135.143L73 142.36L95.72 163.354L129.8 131.862L121.99 124.645ZM121.99 82L95.72 105.947L80.81 92.4974L73 99.7143L95.72 120.709L129.8 89.2169L121.99 82ZM121.99 167.291L95.72 191.238L80.81 177.788L73 185.005L95.72 206L129.8 174.508L121.99 167.291Z" fill="url(#paint0_linear_2127_192)"/>
<path d="M143.053 137.596H215V150.404H143.053V137.596ZM143.053 95.9719H215V108.779H143.053V95.9719ZM143.053 179.221H215V192.028H143.053V179.221Z" fill="url(#paint1_linear_2127_192)"/>
</g>
<defs>
<filter id="filter0_d_2127_192" x="73" y="82" width="150" height="133" filterUnits="userSpaceOnUse" color-interpolation-filters="sRGB">
<feFlood flood-opacity="0" result="BackgroundImageFix"/>
<feColorMatrix in="SourceAlpha" type="matrix" values="0 0 0 0 0 0 0 0 0 0 0 0 0 0 0 0 0 0 127 0" result="hardAlpha"/>
<feOffset dx="4" dy="5"/>
<feGaussianBlur stdDeviation="2"/>
<feComposite in2="hardAlpha" operator="out"/>
<feColorMatrix type="matrix" values="0 0 0 0 0 0 0 0 0 0 0 0 0 0 0 0 0 0 0.25 0"/>
<feBlend mode="normal" in2="BackgroundImageFix" result="effect1_dropShadow_2127_192"/>
<feBlend mode="normal" in="SourceGraphic" in2="effect1_dropShadow_2127_192" result="shape"/>
</filter>
<linearGradient id="paint0_linear_2127_192" x1="73" y1="144" x2="129.8" y2="144" gradientUnits="userSpaceOnUse">
<stop stop-color="#72C6EF"/>
<stop offset="1" stop-color="#004E8F"/>
</linearGradient>
<linearGradient id="paint1_linear_2127_192" x1="143.053" y1="144" x2="215" y2="144" gradientUnits="userSpaceOnUse">
<stop stop-color="#72C6EF"/>
<stop offset="1" stop-color="#004E8F"/>
</linearGradient>
</defs>
</svg>
